<svg width="512" height="512" viewBox="0 0 512 512" fill="none" xmlns="http://www.w3.org/2000/svg">
  <rect width="512" height="512" rx="112" fill="#0B1220"/>
  <rect x="42" y="42" width="428" height="428" rx="92" fill="url(#bg)"/>

  <circle cx="154" cy="198" r="38" fill="#F8FAFC"/>
  <rect x="250" y="160" width="112" height="76" rx="24" fill="#DBEAFE"/>
  <rect x="196" y="290" width="124" height="80" rx="24" fill="#BAE6FD"/>
  <path d="M154 236L154 270L196 270" stroke="#F8FAFC" stroke-width="16" stroke-linecap="round" stroke-linejoin="round"/>
  <path d="M192 198H250" stroke="#F8FAFC" stroke-width="16" stroke-linecap="round"/>
  <path d="M306 236V290" stroke="#F8FAFC" stroke-width="16" stroke-linecap="round"/>
  <path d="M348 236L390 276L390 330H320" stroke="#F8FAFC" stroke-width="16" stroke-linecap="round" stroke-linejoin="round"/>

  <rect x="98" y="310" width="62" height="62" rx="16" fill="#0F172A" fill-opacity="0.92"/>
  <path d="M117 338H141" stroke="#E2E8F0" stroke-width="10" stroke-linecap="round"/>
  <path d="M117 356H134" stroke="#7DD3FC" stroke-width="10" stroke-linecap="round"/>
  <path d="M154 341L180 341" stroke="#F8FAFC" stroke-width="12" stroke-linecap="round"/>

  <circle cx="390" cy="330" r="34" fill="#F8FAFC"/>
  <circle cx="390" cy="330" r="13" fill="#0EA5E9"/>

  <defs>
    <linearGradient id="bg" x1="78" y1="76" x2="432" y2="446" gradientUnits="userSpaceOnUse">
      <stop stop-color="#1D4ED8"/>
      <stop offset="1" stop-color="#0EA5E9"/>
    </linearGradient>
  </defs>
</svg>
